<svg xmlns="http://www.w3.org/2000/svg" viewBox="-72 -58 144 120" fill="none">
  <!-- Peak -->
  <path d="M0,-12.6L5.5,-9.3L5.5,-2.7L0,0.6L-5.5,-2.7L-5.5,-9.3Z" fill="#8B6914"/>
  <!-- Row 2 -->
  <path d="M-15.4,-7.8L-9.9,-4.5L-9.9,2.1L-15.4,5.4L-20.9,2.1L-20.9,-4.5Z" fill="#D4782A"/>
  <path d="M15.4,-7.8L20.9,-4.5L20.9,2.1L15.4,5.4L9.9,2.1L9.9,-4.5Z" fill="#5C7A3A"/>
  <!-- Row 3 -->
  <path d="M-26.6,-2.8L-21.1,0.5L-21.1,7.1L-26.6,10.4L-32.1,7.1L-32.1,0.5Z" fill="#3A6B8C"/>
  <path d="M0,-2.8L5.5,0.5L5.5,7.1L0,10.4L-5.5,7.1L-5.5,0.5Z" fill="#6BA3C9"/>
  <path d="M26.6,-2.8L32.1,0.5L32.1,7.1L26.6,10.4L21.1,7.1L21.1,0.5Z" fill="#D4782A"/>
  <!-- Row 4 -->
  <path d="M-26.6,5.6L-21.1,8.9L-21.1,15.5L-26.6,18.8L-32.1,15.5L-32.1,8.9Z" fill="#2D5A2D"/>
  <path d="M0,5.6L5.5,8.9L5.5,15.5L0,18.8L-5.5,15.5L-5.5,8.9Z" fill="#7B68AE"/>
  <path d="M26.6,5.6L32.1,8.9L32.1,15.5L26.6,18.8L21.1,15.5L21.1,8.9Z" fill="#5C7A3A"/>
  <!-- Row 5 -->
  <path d="M-38.5,17.5L-33,20.8L-33,27.4L-38.5,30.7L-44,27.4L-44,20.8Z" fill="#2D5A2D"/>
  <path d="M-10.5,17.5L-5,20.8L-5,27.4L-10.5,30.7L-16,27.4L-16,20.8Z" fill="#4A8B7A"/>
  <path d="M17.5,17.5L23,20.8L23,27.4L17.5,30.7L12,27.4L12,20.8Z" fill="#D4782A"/>
  <path d="M38.5,17.5L44,20.8L44,27.4L38.5,30.7L33,27.4L33,20.8Z" fill="#D4782A"/>
  <!-- Row 6 (bottom) -->
  <path d="M-45.5,31.5L-40,34.8L-40,41.4L-45.5,44.7L-51,41.4L-51,34.8Z" fill="#8B4513"/>
  <path d="M-24.5,31.5L-19,34.8L-19,41.4L-24.5,44.7L-30,41.4L-30,34.8Z" fill="#3E2723"/>
  <path d="M0,31.5L5.5,34.8L5.5,41.4L0,44.7L-5.5,41.4L-5.5,34.8Z" fill="#7B68AE"/>
  <path d="M24.5,31.5L30,34.8L30,41.4L24.5,44.7L19,41.4L19,34.8Z" fill="#D4782A"/>
  <path d="M45.5,31.5L51,34.8L51,41.4L45.5,44.7L40,41.4L40,34.8Z" fill="#3E2723"/>
</svg>
